# xmcd
#
# Track frame offsets:
#	182
#	13167
#	56577
#	69107
#	86565
#	96875
#	121090
#	129610
#	156192
#	173305
#
# Disc length: 2478 seconds
#
# Revision: 3
# Processed by: cddbd v1.4PL0 Copyright (c) Steve Scherf et al.
# Submitted via: audiograbber 1.82.02
#
DISCID=7309ac0a
DTITLE=Werner Widmer - Max Blues Comics
DYEAR=1990
DGENRE=Blues
TTITLE0=Sunntigsbrate
TTITLE1=Lego-Blues
TTITLE2=Tschu-Tschu
TTITLE3=Herrmann
TTITLE4=Lecker
TTITLE5=Mäntigmorge Im Himmel
TTITLE6=Maschine
TTITLE7=I Wär So Gern...
TTITLE8=S'Marieli
TTITLE9=Tschüss
EXTD=
EXTT0=
EXTT1=
EXTT2=
EXTT3=
EXTT4=
EXTT5=
EXTT6=
EXTT7=
EXTT8=
EXTT9=
PLAYORDER=
